<svg xmlns:xlink="http://www.w3.org/1999/xlink">
	<symbol
		id="boxes"
		viewBox="0 0 60 60"
		fill="none"
		xmlns="http://www.w3.org/2000/svg"
	>
		<path fill-rule="evenodd" clip-rule="evenodd" d="M30 0L55.9808 15V45L30 60L4.01924 45V15L30 0Z" fill="#2B5542"/>

		<path d="M29 42.0047V29.6635C29 29.2986 28.7065 29 28.3478 29H14.6522C14.2935 29 14 29.2986 14 29.6635V42.0047C14 42.5687 14.4239 43 14.9783 43H28.0217C28.5761 43 29 42.5355 29 42.0047ZM24.6304 33.4455H18.3696C18.0109 33.4455 17.75 33.1469 17.75 32.8152V31.5545C17.75 31.1896 18.0435 30.9242 18.3696 30.9242H24.6304C24.9891 30.9242 25.25 31.2228 25.25 31.5545V32.8152C25.25 33.1801 24.9565 33.4455 24.6304 33.4455Z" fill="#ffffff"/>

		<path d="M38 26.0047V13.6635C38 13.2986 37.7065 13 37.3478 13H23.6522C23.2935 13 23 13.2986 23 13.6635V26.0047C23 26.5687 23.4239 27 23.9783 27H37.0217C37.5761 27 38 26.5355 38 26.0047ZM33.6304 17.4455H27.3696C27.0109 17.4455 26.75 17.1469 26.75 16.8152V15.5545C26.75 15.1896 27.0435 14.9242 27.3696 14.9242H33.6304C33.9891 14.9242 34.25 15.2228 34.25 15.5545V16.8152C34.25 17.1801 33.9565 17.4455 33.6304 17.4455Z" fill="#ffffff"/>

		<path d="M46 42.0047V29.6635C46 29.2986 45.7065 29 45.3478 29H31.6522C31.2935 29 31 29.2986 31 29.6635V42.0047C31 42.5687 31.4239 43 31.9783 43H45.0217C45.5761 43 46 42.5355 46 42.0047ZM41.6304 33.4455H35.3696C35.0109 33.4455 34.75 33.1469 34.75 32.8152V31.5545C34.75 31.1896 35.0435 30.9242 35.3696 30.9242H41.6304C41.9891 30.9242 42.25 31.2228 42.25 31.5545V32.8152C42.25 33.1801 41.9565 33.4455 41.6304 33.4455Z" fill="#ffffff"/>
	</symbol>
	<symbol
		id="vehicle"
		viewBox="0 0 60 60"
		fill="none"
		xmlns="http://www.w3.org/2000/svg"
	>
		<path fill-rule="evenodd" clip-rule="evenodd" d="M30 0L55.9808 15V45L30 60L4.01924 45V15L30 0Z" fill="#2B5542"/>

		<path d="M43.792 27.1893L41.2591 20.1893C40.5686 18.2821 38.7003 17 36.6105 17H23.3895C21.2997 17 19.4314 18.2821 18.7422 20.1881L16.2092 27.1881C14.8566 28.0488 14 29.5357 14 31.1714V39.619C14 40.9345 15.1015 42 16.4615 42C17.8215 42 18.9231 40.9345 18.9231 39.619V38.1179C18.9231 38.1179 25.4228 38.4286 30 38.4286C34.5772 38.4286 41.0769 38.1179 41.0769 38.1179V39.619C41.0769 40.9345 42.1785 42 43.5385 42C44.8985 42 46 40.9345 46 39.619V31.1714C46 29.5357 45.1422 28.0488 43.792 27.1893ZM19.6554 24.8726L21.0658 20.975C21.4117 20.0202 22.3434 19.381 23.3895 19.381H36.6105C37.6566 19.381 38.5883 20.0202 38.9342 20.975L40.3446 24.8726C40.5662 25.4857 40.0382 26.1036 39.3748 26C36.9612 25.6226 33.8585 25.3333 30 25.3333C26.1415 25.3333 23.0388 25.6226 20.6252 26C19.9618 26.1036 19.4338 25.4857 19.6554 24.8726ZM19.5385 33.6667C18.5194 33.6667 17.6923 32.8667 17.6923 31.881C17.6923 30.8952 18.5194 30.0952 19.5385 30.0952C20.5575 30.0952 21.3846 30.8952 21.3846 31.881C21.3846 32.8667 20.5575 33.6667 19.5385 33.6667ZM33.6923 32.4762H26.3077C25.6283 32.4762 25.0769 31.9429 25.0769 31.2857C25.0769 30.6286 25.6283 30.0952 26.3077 30.0952H33.6923C34.3717 30.0952 34.9231 30.6286 34.9231 31.2857C34.9231 31.9429 34.3717 32.4762 33.6923 32.4762ZM40.4615 33.6667C39.4425 33.6667 38.6154 32.8667 38.6154 31.881C38.6154 30.8952 39.4425 30.0952 40.4615 30.0952C41.4806 30.0952 42.3077 30.8952 42.3077 31.881C42.3077 32.8667 41.4806 33.6667 40.4615 33.6667Z" fill="#ffffff"/>
	</symbol>
	<symbol
		id="garage"
		viewBox="0 0 60 60"
		fill="none"
		xmlns="http://www.w3.org/2000/svg"
	>
		<path fill-rule="evenodd" clip-rule="evenodd" d="M30 0L55.9808 15V45L30 60L4.01924 45V15L30 0Z" fill="#2B5542"/>

		<path d="M14 29.2415H14.0059V29.2364L14 29.2415ZM45.0924 28.6947C45.0924 28.5359 45.0172 28.3933 44.8978 28.294L30.4125 15.1725C30.3052 15.0693 30.1546 15.0041 29.9867 15V15.0196C29.8187 15.0233 29.6681 15.0887 29.5608 15.1919L15.0755 28.3126C14.9564 28.4114 14.8809 28.5548 14.8809 28.7129C14.8809 29.0156 15.1517 29.2597 15.4848 29.2597H18.9181V31.8448V43.7354H26.9113V35.3852C26.9113 35.0784 27.1855 34.8289 27.5238 34.8289H32.4392C32.7787 34.8289 33.0538 35.0784 33.0538 35.3852V43.737H41.0532V31.8462V29.2456V29.2415H44.4865C44.8221 29.2415 45.0924 28.997 45.0924 28.6947ZM45.9735 29.2605L45.9674 29.2553V29.2605H45.9735Z" fill="#ffffff"/>

		<rect x="21" y="30" width="18" height="14" fill="#2B5542"/>

		<rect x="18" y="43" width="24" height="2" fill="#2B5542"/>

		<rect x="22" y="31" width="16" height="2" fill="#ffffff"/>

		<rect x="22" y="34" width="16" height="2" fill="#ffffff"/>

		<rect x="22" y="37" width="16" height="2" fill="#ffffff"/>

		<rect x="22" y="40" width="16" height="2" fill="#ffffff"/>
	</symbol>
	<symbol
		id="home"
		viewBox="0 0 60 60"
		fill="none"
		xmlns="http://www.w3.org/2000/svg"
	>
		<path fill-rule="evenodd" clip-rule="evenodd" d="M30 0L55.9808 15V45L30 60L4.01924 45V15L30 0Z" fill="#2B5542"/>

		<path d="M14 28.7283H14.0059V28.7226L14 28.7283ZM45.0924 28.1244C45.0924 27.9489 45.0172 27.7915 44.8978 27.6819L30.4125 13.1905C30.3052 13.0766 30.1546 13.0046 29.9867 13V13.0216C29.8187 13.0257 29.6681 13.098 29.5608 13.2119L15.0755 27.7024C14.9564 27.8115 14.8809 27.9699 14.8809 28.1445C14.8809 28.4787 15.1517 28.7483 15.4848 28.7483H18.9181V31.6033V44.7352H26.9113V35.5133C26.9113 35.1745 27.1855 34.899 27.5238 34.899H32.4392C32.7787 34.899 33.0538 35.1745 33.0538 35.5133V44.737H41.0532V31.6049V28.7328V28.7283H44.4865C44.8221 28.7283 45.0924 28.4582 45.0924 28.1244ZM45.9735 28.7492L45.9674 28.7435V28.7492H45.9735Z" fill="#ffffff"/>
	</symbol>
	<symbol
		id="facebook"
		viewBox="0 0 60 60"
		height="40"
		width="40"
		fill="none"
		xmlns="http://www.w3.org/2000/svg"
	>
		<g fill="none" fill-rule="evenodd" id="soical" stroke="none" stroke-width="1">
			<g id="social" transform="translate(-273.000000, -138.000000)">
				<g id="slices" transform="translate(173.000000, 138.000000)"/>

				<g fill="#ffffff" id="hexagon-black" transform="translate(173.000000, 138.000000)">
					<polygon id="Polygon-1" points="130 0 155.980762 15 155.980762 45 130 60 104.019238 45 104.019238 15 "/>
				</g>

				<g fill="#2b5542" id="icon" transform="translate(182.000000, 150.000000)">
					<path d="M116.462224,35.314313 L116.462224,17.9989613 L112.943289,17.9989612 L112.943289,12.2593563 L116.462224,12.2593563 L116.462224,8.78838641 C116.462224,4.10664222 117.861995,0.730618986 122.988102,0.730618986 L129.08636,0.730618986 L129.08636,6.45843996 L124.792255,6.45843996 C122.641894,6.45843996 122.151874,7.8873763 122.151874,9.38376095 L122.151874,12.2593553 L128.769423,12.2593558 L127.866173,17.9989613 L122.151874,17.9989613 L122.151874,35.3143123 L116.462224,35.314313 Z" id="facebook"/>
				</g>
			</g>
		</g>
	</symbol>
	<symbol
		id="twitter"
		viewBox="0 0 60 60"
		height="40"
		width="40"
		fill="none"
		xmlns="http://www.w3.org/2000/svg"
	>
		<g fill="none" fill-rule="evenodd" id="soical" stroke="none" stroke-width="1">
			<g id="social" transform="translate(-173.000000, -138.000000)">
				<g id="slices" transform="translate(173.000000, 138.000000)"/>

				<g fill="#ffffff" id="hexagon-black" transform="translate(173.000000, 138.000000)">
					<polygon id="Polygon-1" points="30 0 55.9807621 15 55.9807621 45 30 60 4.01923789 45 4.01923789 15 "/>
				</g>

				<g fill="#2b5542" id="icon" transform="translate(182.000000, 150.000000)">
					<path d="M32.0521385,6.43669427 C30.8431846,5.0622015 29.1205385,4.1864641 27.2140615,4.15473103 C23.5536,4.09380309 20.5856538,7.18692339 20.5856538,11.063116 C20.5856538,11.6132412 20.6442923,12.1496934 20.7573692,12.6646732 C15.2485846,12.3073526 10.3644692,9.43877059 7.09541538,5.1147218 C6.52486154,6.1508617 6.19790769,7.36188271 6.19790769,8.65915037 C6.19790769,11.1149884 7.36809231,13.2945272 9.14663077,14.5814174 C8.06012308,14.5334499 7.03806923,14.2045378 6.14443846,13.664952 C6.14379231,13.694445 6.14379231,13.7239449 6.14379231,13.7539625 C6.14379231,17.1835497 8.42859231,20.0607076 11.4608308,20.7309383 C10.9046538,20.888538 10.3190769,20.9710163 9.7146,20.967008 C9.28749231,20.9641758 8.87217692,20.9168118 8.46752308,20.831768 C9.31091538,23.6443777 11.7587077,25.6967663 14.6592923,25.764628 C12.3908077,27.6476963 9.53286923,28.7691933 6.42729231,28.762787 C5.89227692,28.7616833 5.36469231,28.727112 4.84615385,28.6605996 C7.77953077,30.6733139 11.2635923,31.8451711 15.0067615,31.8461531 C27.1985538,31.8493518 33.8657308,21.2395109 33.8657308,12.0367687 C33.8657308,11.7348363 33.8591077,11.4345191 33.8465077,11.135652 C35.1415615,10.1706665 36.2652231,8.96078915 37.1538462,7.57921901 C35.9652462,8.11501615 34.6876385,8.47086863 33.3470308,8.62013789 C34.7154231,7.77796518 35.7665538,6.43009607 36.2613462,4.8137584 C34.9805077,5.59049229 33.5620385,6.14751286 32.0521385,6.43669427 Z" id="twitter"/>
				</g>
			</g>
		</g>
	</symbol>
</svg>
